<svg width="125" height="20" viewBox="0 0 125 20" fill="none" xmlns="http://www.w3.org/2000/svg">
<path d="M16.59 19.6472H11.66L4.1475 6.40434H4.04317V19.6472H0V0.27137H5.06048L12.4425 13.27H12.5469V0.27137H16.59V19.6472ZM27.8856 15.0611L32.1114 15.3596C31.6157 17.3677 29.6855 20 25.1728 20C20.7383 20 18.0255 17.1235 18.0255 12.483C18.0255 7.84261 20.6601 4.93894 25.1467 4.93894C29.6594 4.93894 32.5809 7.84261 32.2418 13.3514H22.2773C22.3034 15.6309 23.4251 17.0963 25.1728 17.0963C26.9726 17.0963 27.6508 15.9566 27.8856 15.0611ZM25.1467 7.7612C23.399 7.7612 22.4078 9.06377 22.3034 10.7463H28.016C27.9117 9.06377 26.9205 7.7612 25.1467 7.7612ZM55.0052 5.26459L50.5186 19.6472H45.9016L43.4496 10.2035H43.3452L40.9193 19.6472H36.3806L31.8939 5.26459H36.4327L38.8586 14.8711H38.963L41.2584 5.26459H45.7972L48.0927 14.8711H48.197L50.6229 5.26459H55.0052ZM67.7631 9.19946L63.9287 9.66079C63.6939 8.38535 62.7287 7.65265 61.4767 7.65265C60.2768 7.65265 59.416 8.19539 59.416 9.17232C59.416 10.095 60.3289 10.3935 61.7114 10.6106L63.1722 10.8548C65.7024 11.289 68.1805 12.076 68.1805 15.3596C68.1805 18.5889 65.3112 20 61.581 20C57.903 20 55.2685 18.3718 54.7989 15.4681L58.6856 14.9796C58.9725 16.5265 60.0159 17.2592 61.6071 17.2592C63.0418 17.2592 63.9547 16.6079 63.9547 15.5495C63.9547 14.654 62.9896 14.2469 61.5028 14.0027L59.9116 13.7313C57.6683 13.3786 55.2945 12.5373 55.2945 9.38942C55.2945 6.51289 58.19 4.93894 61.4506 4.93894C64.7634 4.93894 67.2936 6.51289 67.7631 9.19946Z" fill="#2074A9"/>
<path d="M69.8043 19.6472V0.27137H72.1519V17.5305H82.4033V19.6472H69.8043ZM83.9652 0H86.2346V2.60516H83.9652V0ZM84.0174 5.37314H86.1824V19.6472H84.0174V5.37314ZM90.5092 7.40841H90.5875C91.4483 5.94301 93.0655 5.04749 94.9436 5.04749C97.6043 5.04749 99.822 6.67571 99.822 10.1493V19.6472H97.6304V10.9362C97.6304 8.11398 96.587 6.97422 94.3698 6.97422C92.4917 6.97422 90.6135 8.43962 90.6135 11.7232V19.6472H88.4485V5.37314H90.5092V7.40841ZM104.064 14.0299V19.6472H101.899V0H104.064V11.4247L110.194 5.37314H112.985L107.351 10.8548L113.637 19.6472H111.002L105.838 12.3474L104.064 14.0299ZM124.661 9.09091L122.652 9.5251C122.287 7.84261 120.826 6.86567 119.183 6.86567C117.383 6.86567 116.209 7.73406 116.209 9.17232C116.209 10.5834 117.514 10.9362 119.027 11.2076L120.487 11.4518C122.835 11.886 125 12.6187 125 15.5767C125 18.4803 122.548 19.9729 119.366 19.9729C116.027 19.9729 113.783 18.1547 113.392 15.5224L115.401 15.0882C115.766 17.1777 117.357 18.1818 119.366 18.1818C121.322 18.1818 122.757 17.2592 122.757 15.6581C122.757 14.1384 121.426 13.7042 119.627 13.3786L118.192 13.1343C116.131 12.7544 113.966 12.0217 113.966 9.17232C113.966 6.75712 116.105 5.04749 119.183 5.04749C122.105 5.04749 124.296 6.91995 124.661 9.09091Z" fill="#656565"/>
</svg>
