<svg width="270" height="290" viewBox="0 0 270 290" fill="none" xmlns="http://www.w3.org/2000/svg">
<g clip-path="url(#clip0_55_3590)">
<path d="M0.952802 85.3942L-0.000244141 85.4629L1.26909 103.085L2.22213 103.016L0.952802 85.3942Z" fill="#2074A9"/>
<path d="M2.86955 112.113L1.9165 112.182L2.3943 118.815L3.34735 118.746L2.86955 112.113Z" fill="#2074A9"/>
<path d="M224.154 193.177H19.521C17.2454 193.131 15.0669 192.247 13.4038 190.693C11.7407 189.139 10.7103 187.026 10.5105 184.758L0.448884 45.129C0.355484 44.0517 0.48858 42.9668 0.839613 41.944C1.19065 40.9213 1.75185 39.9833 2.48712 39.1904C3.2224 38.3975 4.11547 37.7673 5.10892 37.3403C6.10236 36.9133 7.17418 36.6989 8.25545 36.7109H212.889C215.166 36.754 217.347 37.6375 219.012 39.1915C220.677 40.7455 221.709 42.8602 221.909 45.129L231.961 184.758C232.054 185.836 231.921 186.921 231.57 187.943C231.219 188.966 230.658 189.904 229.922 190.697C229.187 191.49 228.294 192.12 227.301 192.547C226.307 192.974 225.235 193.189 224.154 193.177Z" fill="#2074A9"/>
<path d="M224.938 193.177H20.3047C18.0275 193.134 15.8466 192.25 14.1815 190.696C12.5164 189.142 11.4846 187.027 11.2846 184.758L1.23258 45.129C1.13918 44.0517 1.27227 42.9668 1.6233 41.944C1.97434 40.9213 2.53554 39.9833 3.27081 39.1904C4.00609 38.3975 4.89917 37.7673 5.89261 37.3403C6.88605 36.9133 7.95787 36.6989 9.03914 36.7109H213.672C215.95 36.7519 218.132 37.6347 219.798 39.1891C221.463 40.7435 222.494 42.8594 222.692 45.129L232.754 184.758C232.846 185.836 232.712 186.921 232.359 187.944C232.007 188.967 231.445 189.905 230.709 190.697C229.973 191.49 229.079 192.12 228.086 192.547C227.092 192.974 226.02 193.188 224.938 193.177Z" fill="#2074A9"/>
<path opacity="0.5" d="M224.938 193.177H20.3047C18.0275 193.134 15.8466 192.25 14.1815 190.696C12.5164 189.142 11.4846 187.027 11.2846 184.758L1.23258 45.129C1.13918 44.0517 1.27227 42.9668 1.6233 41.944C1.97434 40.9213 2.53554 39.9833 3.27081 39.1904C4.00609 38.3975 4.89917 37.7673 5.89261 37.3403C6.88605 36.9133 7.95787 36.6989 9.03914 36.7109H213.672C215.95 36.7519 218.132 37.6347 219.798 39.1891C221.463 40.7435 222.494 42.8594 222.692 45.129L232.754 184.758C232.846 185.836 232.712 186.921 232.359 187.944C232.007 188.967 231.445 189.905 230.709 190.697C229.973 191.49 229.079 192.12 228.086 192.547C227.092 192.974 226.02 193.188 224.938 193.177Z" fill="white"/>
<path d="M213.978 40.9248H9.34472H8.65675C3.43008 41.3548 4.50025 49.3047 9.7747 49.3047H214.761C220.036 49.3047 219.959 41.3548 214.666 40.9248H213.978Z" fill="#2074A9"/>
<path d="M14.6767 45.129C14.6953 45.375 14.6624 45.6222 14.5803 45.8548C14.4981 46.0874 14.3684 46.3004 14.1994 46.4802C14.0304 46.6599 13.8259 46.8026 13.5988 46.8989C13.3717 46.9953 13.127 47.0434 12.8803 47.04C12.3616 47.0306 11.8645 46.8306 11.4839 46.4781C11.1032 46.1257 10.8656 45.6454 10.8164 45.129C10.7964 44.8835 10.8279 44.6365 10.909 44.4039C10.99 44.1712 11.1188 43.9581 11.287 43.7782C11.4553 43.5983 11.6593 43.4555 11.8859 43.359C12.1126 43.2625 12.3569 43.2145 12.6032 43.2179C13.1242 43.2229 13.6248 43.4211 14.0079 43.7742C14.391 44.1273 14.6293 44.6101 14.6767 45.129Z" fill="#FAFAFA"/>
<path d="M21.2411 45.129C21.2597 45.375 21.2269 45.6222 21.1447 45.8548C21.0625 46.0874 20.9328 46.3004 20.7639 46.4802C20.5949 46.6599 20.3903 46.8026 20.1632 46.8989C19.9361 46.9953 19.6914 47.0434 19.4447 47.04C18.9261 47.0306 18.429 46.8306 18.0483 46.4781C17.6676 46.1257 17.43 45.6454 17.3808 45.129C17.3608 44.8835 17.3924 44.6365 17.4734 44.4039C17.5545 44.1712 17.6833 43.9581 17.8515 43.7782C18.0197 43.5983 18.2237 43.4555 18.4504 43.359C18.677 43.2625 18.9213 43.2145 19.1676 43.2179C19.6886 43.2229 20.1892 43.4211 20.5723 43.7742C20.9554 44.1273 21.1938 44.6101 21.2411 45.129Z" fill="#FAFAFA"/>
<path d="M27.7958 45.129C27.8158 45.3745 27.7842 45.6215 27.7032 45.8541C27.6221 46.0867 27.4934 46.2998 27.3251 46.4798C27.1569 46.6597 26.9529 46.8025 26.7262 46.899C26.4996 46.9954 26.2553 47.0435 26.009 47.04C25.4903 47.0306 24.9932 46.8306 24.6125 46.4781C24.2319 46.1257 23.9943 45.6454 23.945 45.129C23.925 44.8835 23.9566 44.6365 24.0376 44.4039C24.1187 44.1712 24.2475 43.9581 24.4157 43.7782C24.5839 43.5983 24.7879 43.4555 25.0146 43.359C25.2412 43.2625 25.4855 43.2145 25.7319 43.2179C26.2512 43.2252 26.7494 43.4245 27.1305 43.7774C27.5116 44.1303 27.7486 44.6117 27.7958 45.129Z" fill="#FAFAFA"/>
<path d="M219.51 179.236H23.7253C22.8999 179.222 22.1089 178.903 21.5052 178.34C20.9016 177.777 20.5282 177.01 20.4574 176.187L12.1922 61.3632C12.1555 60.9688 12.203 60.571 12.3315 60.1963C12.4599 59.8215 12.6664 59.4783 12.9374 59.1893C13.2083 58.9003 13.5375 58.6721 13.9032 58.5197C14.2689 58.3674 14.6627 58.2944 15.0587 58.3056H210.844C211.671 58.3171 212.465 58.6369 213.069 59.2024C213.673 59.7678 214.045 60.5383 214.112 61.3632L222.386 176.187C222.42 176.582 222.37 176.979 222.24 177.352C222.11 177.726 221.902 178.068 221.631 178.355C221.359 178.643 221.03 178.87 220.665 179.022C220.299 179.174 219.906 179.246 219.51 179.236Z" fill="white"/>
<path d="M137.03 135.492L133.839 91.2326L124.188 85.4231H97.6152L101.227 135.492H137.03Z" fill="white"/>
<path d="M137.03 135.96H101.227C101.109 135.961 100.996 135.917 100.909 135.837C100.822 135.757 100.769 135.648 100.759 135.53L97.1568 85.4613C97.1526 85.3971 97.1614 85.3326 97.1828 85.2719C97.2041 85.2111 97.2375 85.1553 97.281 85.1078C97.3236 85.0619 97.3754 85.0254 97.433 85.0007C97.4906 84.976 97.5528 84.9637 97.6154 84.9644H124.217C124.301 84.9628 124.385 84.986 124.456 85.0313L134.107 90.8409C134.172 90.8774 134.227 90.9298 134.267 90.9932C134.307 91.0566 134.331 91.1291 134.336 91.204L137.518 135.463C137.524 135.526 137.516 135.59 137.494 135.649C137.473 135.709 137.438 135.763 137.394 135.807C137.348 135.858 137.292 135.898 137.229 135.925C137.166 135.951 137.099 135.963 137.03 135.96ZM101.676 135.005H136.553L133.419 91.4811L124.074 85.8531H98.1123L101.676 135.005Z" fill="#2074A9"/>
<path d="M133.839 91.2326L124.188 85.4231L127.733 93.1245L133.839 91.2326Z" fill="#EBEBEB"/>
<path d="M127.733 93.5833C127.644 93.5852 127.557 93.5608 127.482 93.5132C127.408 93.4655 127.349 93.3968 127.313 93.3157L123.768 85.6143C123.727 85.5253 123.716 85.4258 123.734 85.3298C123.753 85.2339 123.802 85.1462 123.873 85.0792C123.949 85.0153 124.042 84.9757 124.141 84.9655C124.24 84.9553 124.34 84.9749 124.427 85.0219L134.078 90.8409C134.156 90.8852 134.219 90.9513 134.26 91.0311C134.3 91.111 134.317 91.201 134.307 91.29C134.294 91.3789 134.257 91.4626 134.2 91.5317C134.143 91.6008 134.067 91.6528 133.982 91.6818L127.867 93.5928C127.822 93.599 127.777 93.5957 127.733 93.5833ZM125.239 86.5984L127.982 92.5609L132.759 91.0989L125.239 86.5984Z" fill="#2074A9"/>
<path d="M112.607 107.973C112.623 108.234 112.585 108.494 112.496 108.74C112.407 108.985 112.269 109.209 112.09 109.399C111.911 109.589 111.695 109.74 111.455 109.843C111.216 109.946 110.957 109.999 110.696 109.999C110.149 109.989 109.626 109.776 109.227 109.402C108.828 109.027 108.582 108.518 108.537 107.973C108.512 107.711 108.544 107.446 108.63 107.197C108.715 106.948 108.853 106.72 109.034 106.528C109.215 106.336 109.435 106.185 109.678 106.085C109.922 105.985 110.185 105.938 110.448 105.947C110.995 105.957 111.519 106.17 111.918 106.545C112.317 106.919 112.563 107.428 112.607 107.973Z" fill="#2074A9"/>
<path d="M125.736 107.973C125.752 108.234 125.714 108.495 125.625 108.74C125.536 108.985 125.398 109.209 125.219 109.399C125.04 109.589 124.824 109.74 124.584 109.843C124.344 109.946 124.086 109.999 123.825 109.999C123.277 109.989 122.752 109.777 122.352 109.403C121.951 109.028 121.703 108.519 121.656 107.973C121.64 107.713 121.678 107.452 121.767 107.207C121.856 106.961 121.995 106.737 122.174 106.547C122.353 106.357 122.569 106.206 122.808 106.103C123.048 106 123.306 105.947 123.567 105.948C124.114 105.959 124.638 106.173 125.038 106.546C125.438 106.92 125.687 107.428 125.736 107.973Z" fill="#2074A9"/>
<path d="M129.434 121.102C129.318 121.1 129.206 121.055 129.122 120.975C129.037 120.896 128.985 120.788 128.975 120.672C128.736 117.423 123.634 114.776 117.605 114.776C113.601 114.776 109.961 115.961 108.231 117.872C107.867 118.226 107.582 118.652 107.395 119.122C107.207 119.593 107.121 120.099 107.142 120.605C107.146 120.668 107.138 120.731 107.118 120.79C107.098 120.85 107.067 120.905 107.025 120.953C106.984 121 106.934 121.039 106.878 121.067C106.821 121.095 106.76 121.112 106.697 121.116C106.635 121.121 106.572 121.113 106.512 121.093C106.452 121.073 106.397 121.041 106.35 121C106.302 120.959 106.263 120.909 106.235 120.852C106.207 120.796 106.191 120.735 106.186 120.672C106.158 120.039 106.262 119.406 106.492 118.815C106.723 118.225 107.074 117.689 107.524 117.242C109.435 115.149 113.324 113.85 117.576 113.85C124.198 113.85 129.596 116.812 129.864 120.605C129.869 120.665 129.862 120.726 129.844 120.784C129.826 120.841 129.796 120.895 129.757 120.941C129.718 120.987 129.67 121.025 129.616 121.053C129.563 121.08 129.504 121.097 129.443 121.102H129.434Z" fill="#2074A9"/>
<path d="M105.154 103.884C105.096 103.885 105.038 103.874 104.984 103.853C104.93 103.832 104.881 103.8 104.839 103.759C104.796 103.717 104.762 103.666 104.739 103.61C104.716 103.555 104.704 103.495 104.704 103.435C104.704 103.374 104.716 103.314 104.739 103.259C104.762 103.203 104.796 103.152 104.839 103.11L106.874 100.922C106.917 100.879 106.967 100.845 107.023 100.822C107.079 100.799 107.139 100.787 107.199 100.787C107.259 100.787 107.319 100.799 107.375 100.822C107.431 100.845 107.481 100.879 107.524 100.922C107.611 101.009 107.66 101.128 107.66 101.251C107.66 101.375 107.611 101.493 107.524 101.581L105.489 103.769C105.444 103.81 105.391 103.841 105.333 103.861C105.276 103.88 105.215 103.888 105.154 103.884Z" fill="#2074A9"/>
<path d="M128.478 103.884C128.362 103.882 128.25 103.838 128.163 103.76L125.822 101.571C125.778 101.53 125.742 101.48 125.716 101.425C125.691 101.37 125.677 101.31 125.675 101.249C125.672 101.188 125.682 101.128 125.703 101.071C125.725 101.014 125.757 100.961 125.798 100.917C125.84 100.872 125.889 100.836 125.945 100.811C126 100.786 126.06 100.772 126.121 100.769C126.181 100.767 126.242 100.777 126.299 100.798C126.356 100.819 126.408 100.852 126.453 100.893L128.803 103.081C128.888 103.17 128.935 103.288 128.935 103.411C128.935 103.534 128.888 103.652 128.803 103.74C128.717 103.827 128.601 103.879 128.478 103.884Z" fill="#2074A9"/>
<path d="M98.5768 145.795C98.6341 146.2 98.6106 146.555 98.5063 146.86C98.4021 147.165 98.2339 147.42 98.0017 147.626C97.7762 147.831 97.4968 147.987 97.1635 148.093C96.8359 148.193 96.4745 148.243 96.0792 148.243H94.9035L95.199 150.332H93.6515L92.6666 143.367H95.5405C95.9625 143.367 96.3461 143.427 96.6913 143.546C97.0422 143.659 97.3465 143.822 97.6043 144.034C97.8688 144.246 98.0824 144.502 98.2452 144.8C98.4138 145.092 98.5234 145.417 98.574 145.775L98.5768 145.795ZM97.0135 145.825L97.0107 145.805C96.9619 145.46 96.811 145.198 96.5579 145.019C96.3115 144.84 95.994 144.75 95.6054 144.75H94.4097L94.7108 146.88H95.9367C96.3252 146.88 96.6126 146.78 96.7989 146.581C96.9841 146.375 97.0557 146.123 97.0135 145.825ZM107.036 146.85C107.106 147.347 107.079 147.815 106.953 148.253C106.826 148.684 106.619 149.065 106.331 149.397C106.049 149.722 105.69 149.981 105.255 150.173C104.826 150.359 104.34 150.451 103.797 150.451C103.254 150.451 102.742 150.359 102.26 150.173C101.778 149.981 101.346 149.725 100.966 149.407C100.592 149.082 100.281 148.704 100.032 148.273C99.7894 147.835 99.6329 147.367 99.5625 146.87L99.5597 146.85C99.4894 146.352 99.5175 145.888 99.6441 145.457C99.7698 145.019 99.9737 144.638 100.256 144.313C100.544 143.981 100.903 143.722 101.332 143.536C101.767 143.344 102.256 143.248 102.799 143.248C103.341 143.248 103.854 143.344 104.337 143.536C104.818 143.722 105.246 143.978 105.621 144.303C106.001 144.621 106.312 144.999 106.555 145.437C106.803 145.868 106.963 146.332 107.033 146.83L107.036 146.85ZM105.421 146.87L105.418 146.85C105.376 146.551 105.282 146.269 105.138 146.004C105 145.739 104.819 145.507 104.597 145.308C104.381 145.109 104.135 144.953 103.858 144.84C103.58 144.72 103.286 144.661 102.978 144.661C102.663 144.661 102.383 144.717 102.138 144.83C101.899 144.943 101.7 145.099 101.541 145.298C101.388 145.497 101.277 145.729 101.207 145.994C101.143 146.253 101.133 146.531 101.175 146.83L101.178 146.85C101.22 147.148 101.31 147.43 101.448 147.695C101.593 147.961 101.773 148.193 101.988 148.392C102.211 148.591 102.458 148.75 102.729 148.869C103.006 148.982 103.303 149.039 103.617 149.039C103.926 149.039 104.202 148.982 104.448 148.869C104.693 148.757 104.892 148.601 105.045 148.402C105.204 148.203 105.316 147.974 105.38 147.715C105.449 147.45 105.463 147.168 105.421 146.87ZM115.573 146.85C115.644 147.347 115.616 147.815 115.49 148.253C115.364 148.684 115.156 149.065 114.868 149.397C114.586 149.722 114.227 149.981 113.792 150.173C113.363 150.359 112.877 150.451 112.334 150.451C111.792 150.451 111.28 150.359 110.798 150.173C110.315 149.981 109.884 149.725 109.504 149.407C109.13 149.082 108.818 148.704 108.57 148.273C108.327 147.835 108.17 147.367 108.1 146.87L108.097 146.85C108.027 146.352 108.055 145.888 108.181 145.457C108.307 145.019 108.511 144.638 108.793 144.313C109.081 143.981 109.44 143.722 109.869 143.536C110.304 143.344 110.793 143.248 111.336 143.248C111.879 143.248 112.391 143.344 112.874 143.536C113.356 143.722 113.784 143.978 114.158 144.303C114.538 144.621 114.849 144.999 115.092 145.437C115.341 145.868 115.5 146.332 115.57 146.83L115.573 146.85ZM113.958 146.87L113.955 146.85C113.913 146.551 113.82 146.269 113.675 146.004C113.537 145.739 113.357 145.507 113.134 145.308C112.919 145.109 112.672 144.953 112.395 144.84C112.117 144.72 111.824 144.661 111.516 144.661C111.201 144.661 110.921 144.717 110.675 144.83C110.437 144.943 110.238 145.099 110.078 145.298C109.926 145.497 109.814 145.729 109.745 145.994C109.681 146.253 109.67 146.531 109.712 146.83L109.715 146.85C109.757 147.148 109.847 147.43 109.985 147.695C110.13 147.961 110.31 148.193 110.526 148.392C110.748 148.591 110.995 148.75 111.267 148.869C111.544 148.982 111.84 149.039 112.155 149.039C112.463 149.039 112.74 148.982 112.985 148.869C113.23 148.757 113.429 148.601 113.582 148.402C113.742 148.203 113.853 147.974 113.917 147.715C113.987 147.45 114 147.168 113.958 146.87ZM123.518 150.332H121.709L119.887 148.103H118.671L118.986 150.332H117.438L116.454 143.367H119.669C120.507 143.367 121.185 143.57 121.704 143.974C122.231 144.379 122.545 144.943 122.647 145.666L122.65 145.686C122.73 146.249 122.654 146.71 122.423 147.069C122.198 147.42 121.873 147.679 121.448 147.845L123.518 150.332ZM121.093 145.765L121.091 145.745C121.044 145.414 120.901 145.165 120.664 144.999C120.426 144.833 120.116 144.75 119.734 144.75H118.197L118.479 146.75H120.047C120.429 146.75 120.708 146.661 120.883 146.482C121.066 146.302 121.136 146.064 121.093 145.765ZM133.702 146.85C133.771 147.341 133.745 147.798 133.625 148.223C133.504 148.647 133.298 149.015 133.007 149.327C132.723 149.639 132.362 149.884 131.925 150.063C131.495 150.243 131.005 150.332 130.456 150.332H127.713L126.728 143.367H129.471C130.02 143.367 130.536 143.457 131.016 143.636C131.503 143.808 131.933 144.051 132.305 144.362C132.684 144.674 132.994 145.042 133.235 145.467C133.475 145.885 133.629 146.339 133.699 146.83L133.702 146.85ZM132.087 146.87L132.084 146.85C132.041 146.545 131.947 146.263 131.803 146.004C131.666 145.745 131.491 145.523 131.277 145.337C131.07 145.152 130.829 145.009 130.553 144.91C130.277 144.803 129.982 144.75 129.667 144.75H128.471L129.065 148.949H130.26C130.575 148.949 130.856 148.899 131.104 148.8C131.351 148.7 131.552 148.558 131.706 148.372C131.868 148.186 131.981 147.967 132.046 147.715C132.117 147.463 132.131 147.181 132.087 146.87ZM142.426 150.332H140.808L139.944 148.77H136.97L136.548 150.332H134.97L136.993 143.318H138.42L142.426 150.332ZM139.2 147.417L137.946 145.158L137.331 147.417H139.2ZM148.053 144.78H145.912L146.697 150.332H145.15L144.365 144.78H142.224L142.025 143.367H147.853L148.053 144.78ZM156.881 150.332H155.263L154.399 148.77H151.425L151.003 150.332H149.425L151.448 143.318H152.874L156.881 150.332ZM153.655 147.417L152.401 145.158L151.786 147.417H153.655Z" fill="#2074A9"/>
<path d="M239.423 57.4075C240.274 56.987 241.334 56.452 242.233 55.9169C243.131 55.3818 244.144 54.8371 245.099 54.2638C247.01 53.1172 248.854 51.9706 250.641 50.7093C254.23 48.2571 257.594 45.4912 260.693 42.4441C261.085 42.081 261.429 41.6701 261.801 41.2879L262.346 40.7051L262.614 40.4088L262.757 40.2655C262.623 40.514 262.757 40.4375 262.757 40.1986C262.832 39.8528 262.877 39.5012 262.891 39.1476C262.869 37.119 262.635 35.0983 262.193 33.1183C261.343 28.828 260.053 24.4231 258.782 20.1041L262.489 18.4702C264.831 22.6362 266.786 27.0086 268.328 31.5321C269.195 33.968 269.747 36.5047 269.971 39.0807C270.029 39.8806 270.004 40.6844 269.895 41.479C269.753 42.5996 269.354 43.6722 268.729 44.6131L268.567 44.8329L268.442 44.9953L268.299 45.1769L268.003 45.5304L267.41 46.247C267.019 46.7153 266.636 47.2026 266.216 47.6612C262.947 51.2634 259.302 54.5052 255.342 57.331C253.431 58.7547 251.405 60.102 249.332 61.3346C248.31 61.9557 247.268 62.5577 246.208 63.131C245.147 63.7043 244.115 64.249 242.892 64.8223L239.423 57.4075Z" fill="#FFB573"/>
<path d="M230.919 282.049C231.635 282.031 232.346 281.935 233.041 281.762C233.076 281.752 233.108 281.732 233.133 281.705C233.158 281.678 233.176 281.645 233.184 281.61C233.189 281.573 233.183 281.536 233.168 281.502C233.153 281.468 233.129 281.439 233.098 281.418C232.821 281.246 230.394 279.67 229.457 280.09C229.355 280.14 229.267 280.216 229.202 280.309C229.136 280.403 229.096 280.512 229.085 280.625C229.048 280.807 229.057 280.995 229.112 281.172C229.167 281.349 229.266 281.51 229.4 281.638C229.843 281.949 230.381 282.094 230.919 282.049ZM232.496 281.495C231.111 281.772 230.059 281.724 229.629 281.352C229.539 281.268 229.473 281.162 229.438 281.044C229.403 280.927 229.4 280.802 229.429 280.683C229.429 280.52 229.524 280.472 229.591 280.444C230.107 280.215 231.512 280.922 232.496 281.495Z" fill="#2074A9"/>
<path d="M232.993 281.772C233.043 281.77 233.09 281.749 233.125 281.713C233.161 281.678 233.182 281.631 233.184 281.581C233.184 281.485 233.184 279.182 232.305 278.408C232.196 278.312 232.069 278.24 231.93 278.195C231.792 278.151 231.647 278.136 231.502 278.15C231.351 278.156 231.206 278.211 231.09 278.308C230.974 278.405 230.894 278.538 230.862 278.686C230.68 279.584 232.133 281.313 232.897 281.743C232.926 281.761 232.959 281.771 232.993 281.772ZM231.626 278.523C231.704 278.523 231.782 278.538 231.854 278.567C231.926 278.597 231.992 278.64 232.047 278.695C232.551 279.435 232.811 280.313 232.792 281.208C232.028 280.606 231.12 279.297 231.235 278.762C231.235 278.666 231.302 278.561 231.54 278.533L231.626 278.523Z" fill="#2074A9"/>
<path d="M232.286 33.51C231.33 38.2876 229.419 47.8427 232.716 51.0533C232.716 51.0533 231.416 55.8309 222.597 55.8309C212.889 55.8309 217.962 51.0533 217.962 51.0533C223.256 49.7824 223.122 45.8553 222.195 42.167L232.286 33.51Z" fill="#FFB573"/>
<path d="M216.099 52.9642C214.58 53.1649 215.88 49.2282 216.491 48.8173C217.924 47.8618 236.423 46.5336 236.299 48.8173C236.223 49.7728 235.764 51.6838 234.961 52.3049C234.159 52.926 229.4 50.9768 216.099 52.9642Z" fill="#263238"/>
<path d="M219.119 51.5979C217.905 52.0087 218.02 48.0338 218.431 47.5465C219.386 46.4476 234.359 42.5969 234.799 44.7755C234.971 45.731 235.057 47.642 234.541 48.3205C234.025 48.9989 229.629 47.8809 219.119 51.5979Z" fill="#263238"/>
<path d="M213.548 24.9486C213.489 24.9531 213.429 24.9434 213.374 24.9201C213.319 24.8968 213.271 24.8607 213.233 24.8148C212.941 24.4388 212.565 24.1366 212.135 23.9324C211.705 23.7283 211.234 23.628 210.758 23.6395C210.705 23.6515 210.651 23.6522 210.598 23.6418C210.546 23.6313 210.496 23.6098 210.452 23.5787C210.408 23.5476 210.371 23.5076 210.344 23.4614C210.317 23.4151 210.299 23.3636 210.293 23.3102C210.287 23.2567 210.292 23.2027 210.309 23.1514C210.325 23.1002 210.352 23.0529 210.387 23.0128C210.423 22.9726 210.467 22.9405 210.516 22.9184C210.565 22.8963 210.618 22.8848 210.672 22.8847C211.274 22.8575 211.874 22.9752 212.421 23.228C212.968 23.4807 213.446 23.8611 213.816 24.3371C213.847 24.3747 213.871 24.4181 213.885 24.4649C213.9 24.5117 213.905 24.5609 213.901 24.6098C213.896 24.6586 213.882 24.706 213.859 24.7494C213.837 24.7928 213.805 24.8313 213.768 24.8626C213.707 24.917 213.629 24.9476 213.548 24.9486Z" fill="#263238"/>
<path d="M211.694 29.6211C211.26 31.1422 210.617 32.5957 209.783 33.94C210.133 34.1418 210.523 34.2652 210.926 34.3015C211.328 34.3378 211.734 34.2862 212.115 34.1502L211.694 29.6211Z" fill="#FF5652"/>
<path d="M212.124 28.4648C212.191 29.105 211.895 29.6592 211.475 29.707C211.054 29.7547 210.672 29.2579 210.605 28.6177C210.538 27.9775 210.834 27.4233 211.255 27.3755C211.675 27.3277 212.124 27.8246 212.124 28.4648Z" fill="#263238"/>
<path d="M211.475 27.3946L209.888 27.0984C209.888 27.0984 210.796 28.2259 211.475 27.3946Z" fill="#263238"/>
<path d="M242.299 281.581H234.292L234.923 263.044H242.93L242.299 281.581Z" fill="#FFB573"/>
<path d="M233.662 280.654H242.701C242.855 280.652 243.005 280.706 243.123 280.806C243.24 280.906 243.318 281.046 243.341 281.198L244.363 288.317C244.382 288.497 244.363 288.678 244.307 288.85C244.251 289.021 244.16 289.179 244.039 289.313C243.919 289.448 243.771 289.555 243.607 289.629C243.442 289.702 243.263 289.74 243.083 289.741C239.949 289.683 238.439 289.502 234.483 289.502C232.047 289.502 228.492 289.75 225.138 289.75C221.784 289.75 221.593 286.435 222.998 286.129C229.266 284.782 230.26 282.918 232.372 281.151C232.732 280.842 233.187 280.667 233.662 280.654Z" fill="#263238"/>
<g opacity="0.2">
<path d="M242.93 263.053H234.923L234.608 272.609H242.615L242.93 263.053Z" fill="black"/>
</g>
<path d="M210.452 62.1562C205.503 60.2452 200.782 58.1048 196.072 55.6969C191.234 53.3379 186.628 50.5324 182.312 47.3171C181.156 46.4161 180.064 45.436 179.044 44.3836C178.777 44.097 178.509 43.8294 178.251 43.5046C177.951 43.1609 177.67 42.8004 177.41 42.4248C176.707 41.3975 176.267 40.2129 176.13 38.9754C176.024 37.8019 176.184 36.6195 176.598 35.5165C176.93 34.6267 177.383 33.7873 177.946 33.0226C178.868 31.749 179.958 30.6049 181.185 29.6209C183.35 27.897 185.687 26.4016 188.16 25.1587C189.345 24.5376 190.549 23.9643 191.772 23.4483C192.995 22.9323 194.199 22.4259 195.508 21.9768L197.199 25.6555C193.033 28.2832 188.714 31.1689 185.542 34.4081C184.815 35.1249 184.174 35.9232 183.631 36.7873C183.172 37.5422 183.182 38.1059 183.258 38.0581C183.335 38.0104 183.258 38.0581 183.392 38.1537L183.774 38.555C183.94 38.7396 184.115 38.915 184.3 39.0805C185.109 39.8287 185.968 40.5214 186.87 41.154C188.847 42.5437 190.902 43.8198 193.024 44.9761C195.173 46.1705 197.39 47.3171 199.645 48.3968C204.155 50.5563 208.818 52.6297 213.405 54.5312L210.452 62.1562Z" fill="#FFB573"/>
<path d="M199.559 23.0852L200.878 20.2187L194.868 18.1548C194.868 18.1548 192.957 23.7923 195.221 26.3913C196.162 26.2439 197.051 25.8644 197.809 25.2872C198.566 24.71 199.168 23.9532 199.559 23.0852Z" fill="#FFB573"/>
<path d="M200.887 14.0078L196.072 12.6223L194.868 18.1261L200.887 20.2091V14.0078Z" fill="#FFB573"/>
<path d="M262.986 20.4957L263.684 13.8071L257.492 15.2882C257.492 15.2882 257.397 21.5755 260.674 22.5788L262.986 20.4957Z" fill="#FFB573"/>
<path d="M260.703 9.08691L256.661 10.9693L257.492 15.2404L263.684 13.7881L260.703 9.08691Z" fill="#FFB573"/>
<path d="M233.547 24.1364C233.843 32.0767 234.13 35.4306 230.547 39.8737C225.148 46.5623 215.335 45.1768 212.678 37.4849C210.29 30.5575 210.213 18.7377 217.628 14.8392C219.259 13.9721 221.084 13.5363 222.931 13.5732C224.778 13.6101 226.584 14.1184 228.179 15.0499C229.774 15.9814 231.105 17.3052 232.044 18.8955C232.984 20.4858 233.501 22.2899 233.547 24.1364Z" fill="#FFB573"/>
<path d="M230.088 39.8546C237.885 36.4912 243.007 29.344 240.847 18.2886C238.774 7.64421 231.607 6.61225 228.645 8.81949C225.683 11.0267 218.297 7.73976 213.863 11.4663C206.219 17.9256 213.443 24.8913 217.227 29.0191C219.482 33.6629 222.444 43.1607 230.088 39.8546Z" fill="#263238"/>
<path d="M226.849 16.3775C228.027 18.1888 229.877 19.4586 231.99 19.9082C234.104 20.3578 236.31 19.9506 238.124 18.7759C239.857 17.4914 241.01 15.5724 241.331 13.4392C241.651 11.3061 241.113 9.13283 239.834 7.3957C238.659 5.58349 236.812 4.31197 234.7 3.86048C232.587 3.40899 230.382 3.81446 228.569 4.9878C226.834 6.27257 225.678 8.19261 225.356 10.3274C225.034 12.4622 225.57 14.6377 226.849 16.3775Z" fill="#2074A9"/>
<path d="M228.875 9.55515C227.757 3.1532 233.805 -1.78682 241.908 0.60197C250.011 2.99076 245.73 10.1571 244.058 15.8902C242.386 21.6233 246.762 27.0793 248.577 22.7126C250.393 18.3459 247.335 16.9795 247.335 16.9795C247.335 16.9795 255.935 19.2154 247.947 28.9043C239.959 38.5933 232.735 27.8915 234.684 21.5755C236.27 16.5113 229.945 15.6131 228.875 9.55515Z" fill="#263238"/>
<path d="M220.781 11.9822C217.083 10.0712 210.825 8.49457 207.261 14.4857C205.579 17.3522 206.229 21.1743 206.229 21.1743L217.112 21.9005L220.781 11.9822Z" fill="#263238"/>
<path d="M204.948 19.2822C204.917 19.281 204.886 19.2736 204.858 19.2604C204.829 19.2473 204.803 19.2286 204.782 19.2055C204.761 19.1825 204.744 19.1554 204.733 19.126C204.723 19.0965 204.718 19.0652 204.719 19.0338C204.719 18.8713 204.996 15.0206 207.318 12.6127C212.927 6.78408 219.501 11.6572 221.383 13.2434C221.411 13.2625 221.435 13.2874 221.453 13.3164C221.47 13.3455 221.482 13.3779 221.486 13.4117C221.49 13.4454 221.487 13.4796 221.477 13.512C221.466 13.5445 221.449 13.5744 221.427 13.5997C221.404 13.6251 221.376 13.6453 221.345 13.6591C221.314 13.6729 221.281 13.6799 221.247 13.6796C221.213 13.6793 221.179 13.6718 221.148 13.6576C221.117 13.6433 221.09 13.6226 221.068 13.5969C219.262 12.049 212.975 7.41472 207.691 12.9471C205.493 15.2308 205.225 19.0242 205.225 19.0624C205.223 19.0957 205.214 19.1281 205.199 19.1576C205.183 19.187 205.162 19.213 205.135 19.2337C205.109 19.2544 205.079 19.2694 205.047 19.2777C205.015 19.2861 204.981 19.2876 204.948 19.2822Z" fill="#263238"/>
<path d="M218.555 28.6654C218.512 30.1658 217.955 31.606 216.978 32.7454C215.66 34.2934 214.112 33.5385 213.796 31.7899C213.481 30.2515 213.796 27.5952 215.459 26.6588C217.122 25.7224 218.574 26.9359 218.555 28.6654Z" fill="#FFB573"/>
<path d="M216.835 101.409C216.835 101.409 217.351 156.963 222.167 187.921C226.065 212.927 233.26 270.755 233.26 270.755H244.182C244.182 270.755 245.242 214.934 243.226 190.195C238.219 127.609 251.128 115.914 240.713 101.409H216.835Z" fill="#263238"/>
<path opacity="0.1" d="M216.835 101.409C216.835 101.409 217.351 156.963 222.167 187.921C226.065 212.927 233.26 270.755 233.26 270.755H244.182C244.182 270.755 245.242 214.934 243.226 190.195C238.219 127.609 251.128 115.914 240.713 101.409H216.835Z" fill="white"/>
<path opacity="0.3" d="M222.578 126.606C226.4 143.375 223.352 169.786 221.259 181.414C219.042 163.756 217.924 140.872 217.37 124.083C219.348 120.892 221.221 120.682 222.578 126.606Z" fill="black"/>
<path d="M231.77 270.975H245.673L246.399 266.092L231.693 265.595L231.77 270.975Z" fill="#2074A9"/>
<path d="M235.735 54.5123C237.044 51.9133 244.077 50.2698 247.918 50.2793L250.785 63.045C250.785 63.045 243.14 74.4061 239.949 73.2022C236.194 71.788 232.935 60.0829 235.735 54.5123Z" fill="#2074A9"/>
<path opacity="0.4" d="M235.735 54.5123C237.044 51.9133 244.077 50.2698 247.918 50.2793L250.785 63.045C250.785 63.045 243.14 74.4061 239.949 73.2022C236.194 71.788 232.935 60.0829 235.735 54.5123Z" fill="black"/>
<path d="M227.632 267.85C227.649 267.821 227.658 267.788 227.658 267.754C227.658 267.721 227.649 267.688 227.632 267.659C227.612 267.625 227.582 267.598 227.546 267.581C227.511 267.564 227.471 267.558 227.432 267.563C227.03 267.621 223.495 268.184 223.017 269.197C222.968 269.288 222.942 269.39 222.942 269.493C222.942 269.597 222.968 269.699 223.017 269.79C223.099 269.941 223.217 270.069 223.36 270.164C223.503 270.259 223.668 270.318 223.839 270.334C224.995 270.459 226.705 268.844 227.565 267.879L227.632 267.85ZM223.39 269.312C223.724 268.777 225.549 268.29 226.944 268.032C225.683 269.312 224.575 270.029 223.925 269.943C223.813 269.93 223.706 269.89 223.613 269.827C223.519 269.764 223.443 269.679 223.39 269.579C223.369 269.543 223.358 269.502 223.358 269.46C223.358 269.418 223.369 269.377 223.39 269.341V269.312Z" fill="#2074A9"/>
<path d="M227.632 267.85C227.648 267.821 227.656 267.788 227.656 267.754C227.656 267.721 227.648 267.688 227.632 267.659C227.575 267.592 226.161 265.958 224.852 265.872C224.663 265.858 224.474 265.883 224.295 265.943C224.116 266.004 223.951 266.1 223.81 266.226C223.418 266.579 223.457 266.885 223.552 267.076C223.963 267.898 226.505 268.184 227.527 267.974C227.552 267.962 227.575 267.945 227.593 267.923C227.611 267.902 227.624 267.877 227.632 267.85ZM223.896 266.646C223.938 266.581 223.99 266.523 224.049 266.474C224.15 266.378 224.271 266.305 224.403 266.26C224.535 266.216 224.675 266.201 224.813 266.216C225.696 266.438 226.49 266.925 227.088 267.611C225.951 267.707 224.116 267.363 223.867 266.875C223.852 266.838 223.846 266.797 223.851 266.757C223.856 266.717 223.872 266.678 223.896 266.646Z" fill="#2074A9"/>
<path d="M235.974 264.458L228.655 267.707L225.396 260.922L221.135 252.027L220.628 250.995L227.948 247.736L228.511 248.902L232.639 257.511L235.974 264.458Z" fill="#FFB573"/>
<path opacity="0.2" d="M232.639 257.511L225.396 260.922L221.135 252.027L228.511 248.902L232.639 257.511Z" fill="black"/>
<path d="M208.302 101.409C208.302 101.409 184.873 159.571 191.208 186.908C196.941 211.647 222.262 258.496 222.262 258.496L232.056 253.575C232.056 253.575 216.405 197.027 214.704 184.778C211.398 160.89 232.639 127.122 232.639 101.447L208.302 101.409Z" fill="#263238"/>
<path opacity="0.1" d="M208.302 101.409C208.302 101.409 184.873 159.571 191.208 186.908C196.941 211.647 222.262 258.496 222.262 258.496L232.056 253.575C232.056 253.575 216.405 197.027 214.704 184.778C211.398 160.89 232.639 127.122 232.639 101.447L208.302 101.409Z" fill="white"/>
<path d="M227.355 266.694L234.617 261.4C234.742 261.308 234.895 261.263 235.05 261.276C235.205 261.288 235.35 261.356 235.458 261.467L240.474 266.617C240.597 266.751 240.691 266.91 240.748 267.082C240.805 267.255 240.825 267.437 240.806 267.618C240.787 267.799 240.729 267.974 240.638 268.131C240.546 268.288 240.422 268.423 240.274 268.528C237.703 270.334 236.375 271.07 233.184 273.402C231.215 274.835 227.298 277.998 224.584 279.976C221.87 281.953 219.807 279.374 220.762 278.303C225.043 273.526 225.941 270.564 226.61 267.888C226.707 267.414 226.971 266.99 227.355 266.694Z" fill="#263238"/>
<path d="M221.632 260.569L234.273 254.788L232.658 249.628L219.119 255.811L221.632 260.569Z" fill="#2074A9"/>
<path d="M214.456 53.8529C213.414 51.1393 204.28 48.1198 199.693 47.1643L197.677 62.2328C197.677 62.2328 205.168 72.9823 208.446 72.0937C212.335 71.0044 216.711 59.672 214.456 53.8529Z" fill="#2074A9"/>
<path opacity="0.4" d="M214.456 53.8529C213.414 51.1393 204.28 48.1198 199.693 47.1643L197.677 62.2328C197.677 62.2328 205.168 72.9823 208.446 72.0937C212.335 71.0044 216.711 59.672 214.456 53.8529Z" fill="black"/>
<path d="M204.48 53.0981C204.48 53.0981 200.658 54.4454 208.302 101.409H240.79C240.245 88.1751 240.226 80.015 246.523 52.8688C241.971 51.9295 237.356 51.3228 232.716 51.0533C227.804 50.6994 222.874 50.6994 217.962 51.0533C211.618 51.5979 204.48 53.0981 204.48 53.0981Z" fill="#2074A9"/>
<path opacity="0.4" d="M204.48 53.0981C204.48 53.0981 200.658 54.4454 208.302 101.409H240.79C240.245 88.1751 240.226 80.015 246.523 52.8688C241.971 51.9295 237.356 51.3228 232.716 51.0533C227.804 50.6994 222.874 50.6994 217.962 51.0533C211.618 51.5979 204.48 53.0981 204.48 53.0981Z" fill="black"/>
<path d="M241.248 99.4977L242.71 102.412C242.825 102.632 242.558 102.861 242.185 102.861H208.092C207.796 102.861 207.557 102.718 207.538 102.536L207.242 99.6697C207.242 99.469 207.481 99.297 207.796 99.297H240.713C240.812 99.2835 240.913 99.2948 241.006 99.3298C241.1 99.3649 241.183 99.4225 241.248 99.4977Z" fill="#2074A9"/>
<path opacity="0.3" d="M241.248 99.4977L242.71 102.412C242.825 102.632 242.558 102.861 242.185 102.861H208.092C207.796 102.861 207.557 102.718 207.538 102.536L207.242 99.6697C207.242 99.469 207.481 99.297 207.796 99.297H240.713C240.812 99.2835 240.913 99.2948 241.006 99.3298C241.1 99.3649 241.183 99.4225 241.248 99.4977Z" fill="white"/>
<path d="M236.824 103.196H237.704C237.885 103.196 238.019 103.11 238.009 102.995L237.589 99.1729C237.589 99.0582 237.426 98.9626 237.254 98.9626H236.366C236.194 98.9626 236.06 99.0582 236.07 99.1729L236.48 102.995C236.5 103.09 236.652 103.196 236.824 103.196Z" fill="#263238"/>
<path d="M215.459 103.196H216.338C216.51 103.196 216.644 103.11 216.634 102.995L216.223 99.1729C216.223 99.0582 216.061 98.9626 215.879 98.9626H214.991C214.819 98.9626 214.685 99.0582 214.695 99.1729L215.105 102.995C215.125 103.09 215.277 103.196 215.459 103.196Z" fill="#263238"/>
</g>
<defs>
<clipPath id="clip0_55_3590">
<rect width="270" height="289.75" fill="white"/>
</clipPath>
</defs>
</svg>
